<svg width="204" height="190" viewBox="0 0 204 190" fill="none" xmlns="http://www.w3.org/2000/svg">
<rect x="36.9399" width="128" height="128" rx="64" fill="#261033"/>
<path d="M73.9399 46L73.9399 28L82.9399 37L91.9399 46L73.9399 46Z" fill="#D89EFA"/>
<rect width="18" height="18" transform="translate(73.9399 46)" fill="#D89EFA"/>
<rect width="18" height="18" transform="translate(73.9399 64)" fill="#D89EFA"/>
<rect width="18" height="18" transform="translate(91.9399 64)" fill="#D89EFA"/>
<path d="M109.94 82L109.94 64L118.94 73L127.94 82L109.94 82Z" fill="#D89EFA"/>
<rect width="18" height="18" transform="translate(73.9399 82)" fill="#D89EFA"/>
<rect width="18" height="18" transform="translate(109.94 82)" fill="#D89EFA"/>
<path d="M91.9399 64L91.9399 46L100.94 55L109.94 64L91.9399 64Z" fill="#D89EFA"/>
<rect width="18" height="18" transform="translate(109.94 46)" fill="#D89EFA"/>
<path d="M-5.82933e-05 175V130.9H6.29994V147.46L6.05994 152.56C6.77994 150.92 7.95994 149.54 9.59994 148.42C11.2799 147.3 13.2799 146.74 15.5999 146.74C18.5599 146.74 20.7799 147.36 22.2599 148.6C23.7399 149.8 24.7199 151.52 25.1999 153.76C25.7199 156 25.9799 158.66 25.9799 161.74V175H19.5599V161.68C19.5599 158.48 19.2399 156.1 18.5999 154.54C17.9599 152.98 16.4999 152.2 14.2199 152.2C13.0999 152.2 11.9199 152.56 10.6799 153.28C9.47994 153.96 8.45994 154.98 7.61994 156.34C6.77994 157.66 6.35994 159.32 6.35994 161.32V175H-5.82933e-05ZM42.9229 175.6C40.4829 175.6 38.2029 175.02 36.0829 173.86C34.0029 172.7 32.3229 171.04 31.0429 168.88C29.7629 166.72 29.1229 164.14 29.1229 161.14C29.1229 158.26 29.6629 155.74 30.7429 153.58C31.8629 151.42 33.4229 149.74 35.4229 148.54C37.4629 147.34 39.8829 146.74 42.6829 146.74C44.3629 146.74 45.8829 147.04 47.2429 147.64C48.6429 148.2 49.8029 148.9 50.7229 149.74C51.6829 150.54 52.3229 151.32 52.6429 152.08L52.7629 147.46H58.9429V175H52.8229L52.7029 170.14C52.3029 171.02 51.6229 171.88 50.6629 172.72C49.7429 173.56 48.6229 174.26 47.3029 174.82C45.9829 175.34 44.5229 175.6 42.9229 175.6ZM44.0029 170.2C45.4829 170.2 46.8229 169.86 48.0229 169.18C49.2629 168.46 50.2429 167.46 50.9629 166.18C51.7229 164.9 52.1029 163.38 52.1029 161.62V161.2C52.1029 159.4 51.7229 157.84 50.9629 156.52C50.2429 155.16 49.2629 154.12 48.0229 153.4C46.8229 152.64 45.4829 152.26 44.0029 152.26C41.3229 152.26 39.3029 153.12 37.9429 154.84C36.6229 156.56 35.9629 158.68 35.9629 161.2C35.9629 163.76 36.6229 165.9 37.9429 167.62C39.3029 169.34 41.3229 170.2 44.0029 170.2ZM63.6567 175V147.46H70.1367V152.86C70.7767 151.06 71.7967 149.6 73.1967 148.48C74.6367 147.32 76.2967 146.74 78.1767 146.74C79.4567 146.74 80.3367 146.86 80.8167 147.1L79.9167 153.64C79.5567 153.4 78.7767 153.28 77.5767 153.28C76.5767 153.28 75.4967 153.5 74.3367 153.94C73.1767 154.38 72.1767 155.16 71.3367 156.28C70.5367 157.36 70.1367 158.88 70.1367 160.84V175H63.6567ZM93.7003 175.6C91.2603 175.6 88.9803 175.02 86.8603 173.86C84.7803 172.7 83.1003 171.04 81.8203 168.88C80.5403 166.72 79.9003 164.14 79.9003 161.14C79.9003 158.26 80.4403 155.74 81.5203 153.58C82.6403 151.42 84.2003 149.74 86.2003 148.54C88.2403 147.34 90.6603 146.74 93.4603 146.74C95.1403 146.74 96.6603 147.04 98.0203 147.64C99.4203 148.2 100.58 148.9 101.5 149.74C102.46 150.54 103.1 151.32 103.42 152.08L103.54 147.46H109.72V175H103.6L103.48 170.14C103.08 171.02 102.4 171.88 101.44 172.72C100.52 173.56 99.4003 174.26 98.0803 174.82C96.7603 175.34 95.3003 175.6 93.7003 175.6ZM94.7803 170.2C96.2603 170.2 97.6003 169.86 98.8003 169.18C100.04 168.46 101.02 167.46 101.74 166.18C102.5 164.9 102.88 163.38 102.88 161.62V161.2C102.88 159.4 102.5 157.84 101.74 156.52C101.02 155.16 100.04 154.12 98.8003 153.4C97.6003 152.64 96.2603 152.26 94.7803 152.26C92.1003 152.26 90.0803 153.12 88.7203 154.84C87.4003 156.56 86.7403 158.68 86.7403 161.2C86.7403 163.76 87.4003 165.9 88.7203 167.62C90.0803 169.34 92.1003 170.2 94.7803 170.2ZM114.438 175V147.46H120.798L120.858 152.5C121.578 150.86 122.738 149.5 124.338 148.42C125.978 147.3 127.938 146.74 130.218 146.74C133.178 146.74 135.398 147.36 136.878 148.6C138.358 149.8 139.338 151.52 139.818 153.76C140.338 156 140.598 158.66 140.598 161.74V175H134.118V161.92C134.118 158.72 133.798 156.28 133.158 154.6C132.558 152.92 131.138 152.08 128.898 152.08C127.738 152.08 126.538 152.44 125.298 153.16C124.058 153.88 123.018 154.92 122.178 156.28C121.338 157.64 120.918 159.32 120.918 161.32V175H114.438ZM158.803 189.4C157.243 189.4 155.743 189.24 154.303 188.92C152.903 188.6 151.683 188.24 150.643 187.84C149.603 187.48 148.903 187.2 148.543 187L149.983 181C150.943 181.64 152.123 182.22 153.523 182.74C154.923 183.3 156.623 183.58 158.623 183.58C159.543 183.58 160.483 183.48 161.443 183.28C162.443 183.12 163.383 182.74 164.263 182.14C165.143 181.58 165.843 180.72 166.363 179.56C166.923 178.44 167.203 176.94 167.203 175.06V170.14C166.403 171.62 165.063 172.9 163.183 173.98C161.343 175.06 159.243 175.6 156.883 175.6C154.483 175.6 152.283 175.02 150.283 173.86C148.323 172.66 146.743 170.98 145.543 168.82C144.383 166.62 143.803 164.04 143.803 161.08C143.803 158.24 144.343 155.76 145.423 153.64C146.543 151.48 148.103 149.8 150.103 148.6C152.143 147.36 154.543 146.74 157.303 146.74C158.983 146.74 160.523 147.04 161.923 147.64C163.323 148.2 164.483 148.9 165.403 149.74C166.363 150.54 167.003 151.32 167.323 152.08L167.443 147.46H173.563V174.82C173.563 179.34 172.383 182.9 170.023 185.5C167.703 188.1 163.963 189.4 158.803 189.4ZM158.683 170.14C160.163 170.14 161.503 169.8 162.703 169.12C163.943 168.4 164.923 167.4 165.643 166.12C166.403 164.84 166.783 163.32 166.783 161.56V161.14C166.783 159.34 166.403 157.78 165.643 156.46C164.923 155.1 163.943 154.06 162.703 153.34C161.503 152.58 160.163 152.2 158.683 152.2C156.003 152.2 153.983 153.06 152.623 154.78C151.303 156.5 150.643 158.62 150.643 161.14C150.643 163.7 151.303 165.84 152.623 167.56C153.983 169.28 156.003 170.14 158.683 170.14ZM191.478 175.6C188.038 175.6 185.238 174.94 183.078 173.62C180.918 172.26 179.338 170.48 178.338 168.28C177.338 166.08 176.838 163.74 176.838 161.26C176.838 158.26 177.438 155.68 178.638 153.52C179.878 151.36 181.578 149.7 183.738 148.54C185.898 147.34 188.338 146.74 191.058 146.74C195.418 146.74 198.598 147.96 200.598 150.4C202.598 152.8 203.598 156.04 203.598 160.12C203.598 161.2 203.538 162.32 203.418 163.48H183.618C184.058 165.96 184.938 167.74 186.258 168.82C187.618 169.86 189.418 170.38 191.658 170.38C193.818 170.38 195.518 170.18 196.758 169.78C197.998 169.38 199.018 168.98 199.818 168.58L201.798 173.2C200.998 173.72 199.758 174.26 198.078 174.82C196.398 175.34 194.198 175.6 191.478 175.6ZM183.618 158.98H197.298C197.338 156.38 196.758 154.6 195.558 153.64C194.358 152.68 192.798 152.2 190.878 152.2C188.878 152.2 187.238 152.74 185.958 153.82C184.718 154.86 183.938 156.58 183.618 158.98ZM190.698 142.54L180.198 130L185.898 126.34L195.078 140.08L190.698 142.54Z" fill="#261033"/>
</svg>
